# xmcd
#
# Track frame offsets:
#	150
#	14067
#	26887
#	38660
#	53002
#	65490
#	78170
#	89245
#	101402
#	113700
#	126860
#	141510
#	155772
#	169442
#	182507
#	196067
#	207995
#	219290
#	231500
#	243127
#	254737
#	268805
#	282517
#	293477
#
# Disc length: 4075 seconds
# Revision: 0
# Processed by: cddbd v1.5.2PL0 Copyright (c) Steve Scherf et al.
# Submitted via: dBpowerAMP V12.0
#
DISCID=6e0fe918
DTITLE=Eddy Arnold - Bouquet Of Roses
DYEAR=1999
DGENRE=Country
TTITLE0=Cattle Call
TTITLE1=Each Minute Seems Like A Million Years
TTITLE2=All Alone In This World Without You
TTITLE3=That's How Much I Love You
TTITLE4=Chained To A Memory
TTITLE5=What Is Life Without Love?
TTITLE6=It's A Sin
TTITLE7=I Couldn't Believe It Was True
TTITLE8=I'll Hold You In My Heart (Till I Can Hold You In My Arms)
TTITLE9=To My Sorrow
TTITLE10=Will The Circle Be Unbroken
TTITLE11=I'm Thinking Tonight Of My Blue Eyes
TTITLE12=Molly Darling
TTITLE13=Anytime
TTITLE14=What A Fool I Was
TTITLE15=It Makes No Difference Now
TTITLE16=My Heart Cries For You
TTITLE17=Texarkana Baby
TTITLE18=Don't Bother To Cry
TTITLE19=Bouquet Of Roses
TTITLE20=Mother's Prayer
TTITLE21=Did You See My Daddy Over There
TTITLE22=Easy Rockin' Chair
TTITLE23=I Walk Alone
EXTD=
EXTT0=
EXTT1=
EXTT2=
EXTT3=
EXTT4=
EXTT5=
EXTT6=
EXTT7=
EXTT8=
EXTT9=
EXTT10=
EXTT11=
EXTT12=
EXTT13=
EXTT14=
EXTT15=
EXTT16=
EXTT17=
EXTT18=
EXTT19=
EXTT20=
EXTT21=
EXTT22=
EXTT23=
PLAYORDER=
